<svg xmlns="http://www.w3.org/2000/svg" width="100" height="100" viewBox="0 0 100 100">
  <g fill="none" fill-rule="evenodd">
    <path fill="#FECD09" d="M18,0 L82,0 C91.9411255,-1.82615513e-15 100,8.0588745 100,18 L100,82 C100,91.9411255 91.9411255,100 82,100 L18,100 C8.0588745,100 1.21743675e-15,91.9411255 0,82 L0,18 C-1.21743675e-15,8.0588745 8.0588745,1.82615513e-15 18,0 Z M26,83 L74,83 L74,66.8660118 C70.2244975,58.9553373 62.2244975,55 50,55 C37.7755025,55 29.7755025,58.9553373 26,66.8660118 L26,83 Z M49.5,50 C58.6126984,50 66,42.836556 66,34 C66,25.163444 58.6126984,18 49.5,18 C40.3873016,18 33,25.163444 33,34 C33,42.836556 40.3873016,50 49.5,50 Z"/>
  </g>
</svg>
