<svg xmlns="http://www.w3.org/2000/svg" width="100" height="100" viewBox="0 0 100 100">
  <path fill="#9B907E" fill-rule="evenodd" d="M18,0 L82,0 C91.9411255,-1.82615513e-15 100,8.0588745 100,18 L100,82 C100,91.9411255 91.9411255,100 82,100 L18,100 C8.0588745,100 1.21743675e-15,91.9411255 0,82 L0,18 C-1.21743675e-15,8.0588745 8.0588745,1.82615513e-15 18,0 Z M57.1137695,61.0097656 C57.1137695,58.7499887 57.4976361,56.9175689 58.2653809,55.5124512 C59.0331256,54.1073335 60.8800309,52.2459426 63.8061523,49.9282227 C68.0070197,46.6254718 70.7882419,43.829764 72.1499023,41.5410156 C73.5115628,39.2522672 74.1923828,36.8766399 74.1923828,34.4140625 C74.1923828,28.4749052 71.5560159,23.7236506 66.2832031,20.1601562 C62.4010223,17.5237498 57.3021149,16.2055664 50.9863281,16.2055664 C42.8743084,16.2055664 36.8555698,18.0959284 32.9299316,21.876709 C29.0042935,25.6574896 26.7517933,30.6477555 26.1723633,36.8476562 L43.0336914,38.9335938 C43.4103209,35.5439284 44.2722101,33.1683011 45.6193848,31.8066406 C46.9665595,30.4449802 48.6686095,29.7641602 50.7255859,29.7641602 C52.6377049,29.7641602 54.0645298,30.2059689 55.0061035,31.0895996 C55.9476772,31.9732303 56.418457,33.2117433 56.418457,34.8051758 C56.418457,36.3986082 55.2451289,38.1513576 52.8984375,40.0634766 C48.4947696,43.7138854 45.6628481,46.2633391 44.4025879,47.7119141 C43.1423277,49.160489 42.1935253,50.7611403 41.5561523,52.513916 C40.9187794,54.2666917 40.6000977,56.548163 40.6000977,59.3583984 L40.6000977,61.0097656 L57.1137695,61.0097656 Z M40.0351562,65.3989258 L40.0351562,81 L57.722168,81 L57.722168,65.3989258 L40.0351562,65.3989258 Z"/>
</svg>
