<svg xmlns="http://www.w3.org/2000/svg" width="100" height="100" viewBox="0 0 100 100">
  <g fill="none" fill-rule="evenodd">
    <path fill="#33C2E3" d="M18,0 L82,0 C91.9411255,-1.82615513e-15 100,8.0588745 100,18 L100,82 C100,91.9411255 91.9411255,100 82,100 L18,100 C8.0588745,100 1.21743675e-15,91.9411255 0,82 L0,18 C-1.21743675e-15,8.0588745 8.0588745,1.82615513e-15 18,0 Z M44.1392655,55 L39,55 L39,60.8230352 L48.5380525,60.8230352 L41.2991272,73.9482033 L50.2385798,73.9482033 L47.0874421,85 L61,68.3004524 L51.2106166,68.3004524 L58.2819676,55 L44.1392655,55 Z M26.7869065,50 C37.0337514,50 61.787232,50 72.7641572,50 C83.7410823,50 91.5592726,30.4828737 65.3317817,30.4828737 C71.3059751,16.8261095 33.42391,6.23218099 33.42391,30.4828737 C8.73275329,28.2723054 16.5400616,50 26.7869065,50 Z"/>
  </g>
</svg>
