<svg xmlns="http://www.w3.org/2000/svg" width="100" height="100" viewBox="0 0 100 100">
  <g fill="none" fill-rule="evenodd">
    <path fill="#FBAB43" d="M18,0 L82,0 C91.9411255,-1.82615513e-15 100,8.0588745 100,18 L100,82 C100,91.9411255 91.9411255,100 82,100 L18,100 C8.0588745,100 1.21743675e-15,91.9411255 0,82 L0,18 C-1.21743675e-15,8.0588745 8.0588745,1.82615513e-15 18,0 Z M76.9107344,49.989375 L83.0181172,44.0121484 C84.8387109,42.2886406 83.9897734,39.2257188 81.6018047,38.654625 L73.2811016,36.5309531 L75.6267031,28.2945859 C76.2895703,25.9254766 74.0556641,23.6909063 71.6873516,24.3539063 L63.4537734,26.7003047 L61.3308984,18.3768125 C60.7691016,16.0261641 57.6719141,15.1664688 55.9752344,16.9599688 L50,23.1147656 L44.0248984,16.9601016 C42.3474766,15.1869219 39.2374063,15.9993359 38.6692344,18.3769453 L36.5463594,26.7004375 L28.3126484,24.3540391 C25.9436719,23.6907734 23.7105625,25.9261406 24.3732969,28.2947188 L26.7188984,36.5310859 L18.3981953,38.6547578 C16.0091641,39.2259844 15.1619531,42.2894375 16.98175,44.0121484 L23.0891328,49.989375 L16.98175,55.9664688 C15.1611562,57.6899766 16.0100937,60.7528984 18.3980625,61.3239922 L26.7187656,63.4476641 L24.3731641,71.6840313 C23.7102969,74.0531406 25.9442031,76.2877109 28.3125156,75.6247109 L36.5460938,73.2783125 L38.6689688,81.6018047 C39.2585234,84.0687969 42.3473438,84.7916953 44.0246328,83.0186484 L50,76.9091406 L55.9751016,83.0186484 C57.6352578,84.8100234 60.754625,84.0128828 61.3307656,81.6018047 L63.4536406,73.2783125 L71.6872188,75.6247109 C74.0560625,76.2879766 76.2893047,74.0526094 75.6265703,71.6840313 L73.2809688,63.4476641 L81.6016719,61.3239922 C83.9905703,60.7526328 84.8377813,57.6893125 83.0179844,55.9664688 L76.9107344,49.989375 Z"/>
    <circle cx="50.5" cy="50.5" r="17.5" fill="#FBAB43"/>
  </g>
</svg>
