<svg xmlns="http://www.w3.org/2000/svg" width="100" height="100" viewBox="0 0 100 100">
  <g fill="none" fill-rule="evenodd">
    <path fill="#D75F27" d="M18,0 L82,0 C91.9411255,-1.82615513e-15 100,8.0588745 100,18 L100,82 C100,91.9411255 91.9411255,100 82,100 L18,100 C8.0588745,100 1.21743675e-15,91.9411255 0,82 L0,18 C-1.21743675e-15,8.0588745 8.0588745,1.82615513e-15 18,0 Z M70.9429864,37.473918 L88,37.473918 L88,26 L13,26 L14.0026913,37.473918 L17.4168177,37.5667827 L18.0823571,44.0771787 L23.1724447,44.643264 C21.3273902,63.5512636 18.9365753,73.3368423 16,74 C19.6794357,73.9373287 26.0040661,73.9373287 34.9738913,74 C36.7260883,61.0331716 38.796349,54.5497574 41.1846735,54.5497574 L59.8778575,54.5497574 C67.8234942,44.7725499 71.5118705,39.0806034 70.9429864,37.473918 Z"/>
    <path fill="#D75F27" d="M44.1051415,35.7760592 C42.2235673,44.5920197 42.7446186,49 45.6682955,49 L57.9145711,49 C63.9676949,38.796835 66.1424041,34.1707009 64.4386988,35.1215976 C63.4142206,35.6933941 60.5549815,36.0002382 55.8609814,36.0421298 C55.3715258,36.046498 50.6946941,44.8123572 50,44.8047924 C49.2138632,44.7962318 52.3810705,36.0125731 51.332108,35.9887313 C50.029902,35.9591336 47.6209131,35.8882429 44.1051415,35.7760592 Z"/>
  </g>
</svg>
